<svg xmlns="http://www.w3.org/2000/svg" width="256" height="256"><path fill-opacity=".016" d="M0 128.004v128.004l128.25-.254 128.25-.254.254-127.75L257.008 0H0v128.004m.485.496c0 70.4.119 99.053.265 63.672.146-35.38.146-92.98 0-128C.604 29.153.485 58.1.485 128.5" fill="#1976D2" fill-rule="evenodd"/><path fill-opacity=".291" d="M92.996 11.75c-.005 3.979-3.223 8.655-7.279 10.58-7.175 3.405-17.39 1.171-20.621-4.511-.878-1.543-2.059-2.809-2.624-2.813C58.857 14.984 35 29.397 35 31.604c0 .334 1.125 1.944 2.5 3.578 1.941 2.307 2.5 4.096 2.5 7.995 0 4.352-.442 5.465-3.31 8.333-4.146 4.146-10.304 5.967-15.411 4.557-2.756-.761-3.893-.709-4.489.207-2.117 3.249-5.022 15.081-5.518 22.476L10.718 87h3.24c7.923 0 14.176 5.942 14.292 13.58.077 5.111-2.066 8.736-7.045 11.92-1.72 1.1-3.145 2.525-3.166 3.166C17.937 118.736 33.607 139 36.083 139c1.309 0 17.874-8.341 26.334-13.261 6.441-3.746 6.785-4.117 5-5.401-4.215-3.031-11.531-10.859-13.771-14.734-4.513-7.806-5.916-14.003-5.422-23.958.548-11.068 3.183-17.609 10.241-25.422 16.353-18.101 47.117-20.207 68.698-4.703l4.881 3.508 13.228-8.671c7.276-4.768 13.586-8.98 14.024-9.36.438-.38-.783-1.894-2.712-3.366l-3.509-2.676-3.773 2.022c-4.958 2.658-11.48 2.612-16.332-.115-5.173-2.907-7.408-7.288-6.74-13.211l.524-4.648-6.385-1.972C114.492 11.217 100.696 9 95.276 9c-1.815 0-2.277.557-2.28 2.75m95.001 12.645c-4.801 1.658-54.265 34.031-52.573 34.408.748.166 5.317-.388 10.153-1.233 4.836-.844 8.936-1.391 9.111-1.216.371.372-21.555 20.972-33.188 31.18-24.07 21.122-51.601 40.158-72.861 50.38-15.041 7.231-21.195 9.233-30.184 9.819-7.554.491-8.226.368-11-2.02-4.458-3.836-4.06-9.888 1.399-21.265 5.187-10.81 4.136-13.832-1.379-3.969-7.853 14.042-9.336 25.115-4.069 30.382 2.302 2.301 3.591 2.669 10.44 2.98 6.876.313 9.124-.083 18.734-3.295 31.786-10.625 75.772-41.377 116.902-81.729 8.792-8.625 15.768-15.893 15.502-16.151-.266-.257-3.859.174-7.984.958-4.125.785-8.053 1.302-8.728 1.151-.676-.151 7.644-6.253 18.488-13.56s19.863-12.845 20.043-12.307c.179.538-1.516 8.052-3.768 16.698-2.251 8.646-3.967 16.074-3.814 16.507.153.433 3.259-7.974 6.901-18.682 3.643-10.709 6.342-19.644 5.998-19.857-.344-.212-2.199.157-4.123.821M75 37.5c-1.925.741-2.825 1.348-2 1.348.825 0 3.075-.607 5-1.348 1.925-.741 2.825-1.348 2-1.348-.825 0-3.075.607-5 1.348M69 40c-.901.582-1.025.975-.309.985.655.008 1.469-.435 1.809-.985.767-1.242.421-1.242-1.5 0m-6.268 3.536C60.679 44.931 59 46.287 59 46.55c0 .263 1.8-.713 4-2.169C66.493 42.07 67.674 41 66.732 41c-.147 0-1.947 1.141-4 2.536m-8.295 6.714L51.5 53.5l3.25-2.937c1.788-1.615 3.25-3.078 3.25-3.25 0-.773-.825-.092-3.563 2.937m33.749-1.161c-11.977 2.057-22.586 9.605-28.24 20.09-3.123 5.791-3.407 7.033-3.388 14.821.018 7.183.443 9.371 2.745 14.124 3.307 6.83 9.269 13.792 13.985 16.332l3.492 1.88 8.61-5.848c4.736-3.217 8.61-6.182 8.61-6.589 0-.407-1.324-1.031-2.942-1.386-4.37-.96-10.493-5.802-12.389-9.798-1.912-4.03-2.197-11.817-.549-15.031 5.392-10.516 19.282-14.52 29.822-8.597C112.373 71.578 117 78.276 117 82.2c0 1.54.204 2.8.453 2.8.249 0 2.612-1.969 5.25-4.374 2.638-2.406 6.147-5.523 7.797-6.926l3-2.552-1.962-3.676c-6.742-12.629-26.954-21.199-43.352-18.383m160.481 8.578c-1.037 1.036-.786 3.814.455 5.055 1.898 1.898 3.885.279 3.778-3.079-.096-3.021-.13-3.046-.9-.643-.768 2.398-.805 2.409-.9.25-.099-2.217-1.129-2.888-2.433-1.583m-83.889 10.628c-24.369 33.37-58.081 65.673-86.372 82.762-11.355 6.858-25.673 13.529-33.459 15.589-7.094 1.876-18.049 2.355-21.939.96-2.209-.793-2.342-.714-1.17.699 5.464 6.583 26.074 4.175 45.162-5.279 5.285-2.617 5.696-2.67 10.5-1.345 2.75.758 9.095 1.652 14.1 1.987l9.1.608.683-4.271c1.258-7.863 10.066-13.821 17.841-12.067 4.814 1.085 7.252 2.603 10.485 6.525l2.866 3.477 6.956-3.564c7.566-3.876 14.646-8.78 18.275-12.659l2.305-2.464-2.483-3.66c-3.735-5.504-4.146-8.891-1.693-13.959 2.932-6.057 7.022-8.097 14.815-7.39l6.031.546 1.699-5.645c.934-3.105 1.942-10.257 2.24-15.895l.542-10.25h-2.663C173.08 83 165 77.806 165 74.258c0-1.534 5.089-8.258 6.25-8.258.412 0 .75 1.52.75 3.378 0 1.857.675 3.937 1.5 4.622 1.238 1.028 1.5.933 1.5-.546 0-3.336-2.201-14.454-2.853-14.409-.356.025-3.672 4.187-7.369 9.25m-72.965-6.612c.721.289 1.584.253 1.916-.079.332-.332-.258-.568-1.312-.525-1.165.048-1.402.285-.604.604m4 0c.721.289 1.584.253 1.916-.079.332-.332-.258-.568-1.312-.525-1.165.048-1.402.285-.604.604m8.92 1.441c.679.684 1.486.991 1.793.683.308-.308-.247-.867-1.233-1.243-1.425-.542-1.54-.428-.56.56m34.267.459c0 1.766 2.153 1.459 2.771-.395.218-.654-.317-1.188-1.188-1.188-.87 0-1.583.712-1.583 1.583m106 1.859c0 .735.563 1.315 1.25 1.289 2.992-.111 4.75.335 4.75 1.206 0 .516-1.575.682-3.5.369-2.69-.436-3.5-.222-3.5.924 0 1.033.733 1.352 2.383 1.037 1.31-.25 2.687.037 3.059.639.401.649-.117 1.094-1.276 1.094-2.172 0-3.409 2.202-2.528 4.5 1.156 3.012 4.239 1.683 5.22-2.25 2.434-9.753 2.422-9.814-1.925-9.987-2.693-.108-3.933.264-3.933 1.179m-.333 14.225c-.367.366-.667 1.321-.667 2.122 0 1.132.31 1.198 1.395.298.767-.636 1.948-1.029 2.625-.872.676.157 1.436-.277 1.688-.965.483-1.315-3.812-1.812-5.041-.583m-2.358 6.958c-1.055 2.235-.918 2.573 1.4 3.454 3.015 1.147 3.094 1.094 4.209-2.794.795-2.771.665-2.992-1.791-3.062-1.88-.054-2.988.643-3.818 2.402M244 87c0 .55.45 1 1 1s1-.45 1-1-.45-1-1-1-1 .45-1 1m-3.401 5.603c-.869 2.264-.818 2.368 1.651 3.42l2.25.959-2.407-.241c-1.324-.133-2.599.322-2.833 1.009-.254.744.441 1.25 1.716 1.25 1.178 0 1.864.45 1.524 1-.34.55-1.465 1-2.5 1s-2.18.482-2.544 1.071c-.431.698.456.959 2.549.75 2.794-.279 3.399-.881 4.663-4.639.799-2.375 1.29-4.809 1.09-5.409-.588-1.763-4.498-1.892-5.159-.17M234 104.383c0 .89.477 1.617 1.059 1.617s.806.409.497.91c-.944 1.527.554 4.09 2.39 4.09.953 0 2.255-1.146 2.893-2.547 1.555-3.412 1.471-4.004-.589-4.142-.963-.064-2.762-.438-4-.831-1.7-.539-2.25-.318-2.25.903m3 3.117c0 .917.484 1.505 1.075 1.308.591-.197 1.075-.785 1.075-1.308s-.484-1.111-1.075-1.308c-.591-.197-1.075.391-1.075 1.308m-3.086 5.103c-.93 1.121-.74 1.397.964 1.397 1.167 0 2.122.499 2.122 1.108 0 .683-.96.868-2.5.481-1.845-.463-2.5-.229-2.5.892 0 .835.563 1.407 1.25 1.269.688-.138 1.25.425 1.25 1.25 0 1.003-.818 1.408-2.466 1.224-3.187-.358-7.269-3.035-6.507-4.268.325-.526.158-.956-.37-.956-.529 0-1.455 1.417-2.059 3.149-1.383 3.967-1.392 3.901.42 3.206 1.976-.758 7.272 1.453 8.446 3.526.722 1.277 1.563.196 3.976-5.109 1.683-3.7 3.06-6.91 3.06-7.133 0-1.198-4.097-1.227-5.086-.036m-72.259 8.226c-.91 1.006-1.655 2.78-1.655 3.943 0 2.276 3.426 5.228 6.068 5.228 2.202 0 4.932-3.187 4.932-5.757 0-4.725-6.132-6.965-9.345-3.414m-150.704 5.462c-5.735 12.255-4.947 17.247 2.95 18.691 5.912 1.081 7.267.518 9.942-4.131 2.323-4.036 2.324-4.045.344-6.196-1.091-1.185-3.808-5.063-6.038-8.617l-4.056-6.462-3.142 6.715m161.651 4.164c-1.431 1.877-2.583 3.779-2.56 4.228.054 1.036 19.575 16.317 20.845 16.317.52 0 2.337-1.758 4.039-3.907l3.095-3.907-4.761-3.41a1749.653 1749.653 0 0 0-11.408-8.071l-6.648-4.661-2.602 3.411m51.356 1.095c-1.061 1.279-1.004 1.833.328 3.164 1.331 1.332 1.885 1.389 3.164.328.852-.708 1.55-1.993 1.55-2.856 0-1.253-.291-1.178-1.45.373-1.401 1.875-1.431 1.864-.884-.309.653-2.59-.822-2.971-2.708-.7m-2.947 4.937c-1.624 1.957-.576 4.513 1.851 4.513 1.846 0 3.748-2.723 2.662-3.81-.288-.288-.524.002-.524.643 0 .642-.675 1.167-1.5 1.167-1.808 0-1.933-1.167-.3-2.8.782-.782.824-1.2.122-1.2-.592 0-1.633.669-2.311 1.487m-4.363 6.928c-2.03 3.098-2.05 3.585-.148 3.585.825 0 1.5.466 1.5 1.035 0 .697-.604.712-1.847.047-2.1-1.124-4.173.319-4.121 2.868.026 1.28.271 1.234 1.404-.26.867-1.144 1.613-1.42 2.027-.75.36.583.178 1.06-.404 1.06-.582 0-1.059.705-1.059 1.567 0 1.09-.584 1.382-1.916.96-1.054-.335-2.205-.14-2.559.432-.354.573.059 1.041.916 1.041s1.559.691 1.559 1.535c0 1.247-.392 1.325-2.086.419-2.512-1.344-4.136-.217-1.672 1.161 1.436.804 1.52 1.294.501 2.925-.673 1.078-1.656 1.96-2.184 1.96-.527 0-.419-.54.241-1.2 1.623-1.623 1.511-2.8-.265-2.8-1.882 0-3.934 3.636-2.538 4.498.552.341.989 1.156.971 1.811-.017.658-.627.407-1.36-.559-.731-.963-1.841-1.75-2.468-1.75-1.89 0-1.283 2.43.956 3.828 1.906 1.19 2.425.927 5.75-2.918 4.676-5.408 15.154-19.979 15.154-21.074 0-.46-.413-.836-.918-.836-.505 0-1.564-.248-2.352-.55-.843-.324-2.113.486-3.082 1.965m-56.498 1.112c-1.652 1.39-3.297 3.865-3.656 5.5-.498 2.266-1.21 2.973-2.997 2.973-3.25 0-8.216 4.446-9.012 8.068-.753 3.428.034 4.879 8.255 15.213l5.394 6.781 3.933-3.115c2.163-1.713 3.933-3.51 3.933-3.993 0-.483-2.475-3.652-5.5-7.042-4.831-5.414-6.759-8.912-4.912-8.912.323 0 3.586 3.155 7.25 7.011l6.662 7.01 3.86-3.625 3.86-3.624-6.805-6.858c-3.743-3.771-6.503-7.16-6.133-7.529.369-.369 4.004 2.311 8.078 5.957l7.406 6.628 3.45-4.178 3.45-4.179-6.583-5.623c-11.868-10.138-14.537-11.003-19.933-6.463m57.415-.632c-.305.493.104 1.148.909 1.457 1.562.599 2.897-.648 1.832-1.713-.904-.904-2.093-.793-2.741.256m-87.748 24.823c-1.476.915-3.24 2.703-3.919 3.973-.852 1.592-2.131 2.309-4.117 2.309-4.304 0-8.764 2.731-10.257 6.28-1.15 2.737-1.086 3.748.489 7.686 3.601 9.003 7.153 16.034 8.1 16.034 1.704 0 8.887-4.007 8.887-4.958 0-.505-1.794-4.208-3.986-8.23-4.363-8.004-4.617-8.812-2.764-8.811.688.001 3.193 3.601 5.568 8 2.375 4.399 4.585 7.999 4.912 7.999.957 0 9.27-5.033 9.27-5.612 0-.29-1.268-2.409-2.818-4.708-5.482-8.131-7.244-11.523-6.292-12.112.525-.324 3.063 2.794 5.641 6.929 2.577 4.136 5.071 7.757 5.542 8.048.957.592 8.927-4.38 8.927-5.568 0-.99-8.52-12.695-11.811-16.227-2.986-3.203-7.249-3.59-11.372-1.032m66.852.356c-1.739 2.031-1.739 2.16.013 3.584 1.702 1.384 1.658 1.446-.682.974-2.705-.546-9.06 3.642-7.657 5.045.421.421 1.173.107 1.67-.698.746-1.206 1.13-1.233 2.195-.149 1.057 1.074 1.042 1.254-.083.991-.756-.176-1.581.242-1.833.929-1.132 3.086 2.956.759 7.608-4.331 4.95-5.416 6.079-7.419 4.182-7.419-.505 0-1.524-.232-2.264-.516-.74-.284-2.157.431-3.149 1.59m1.481.876c.43 1.289 1.801 1.521 1.925.325.041-.399-.465-.905-1.125-1.125-.66-.22-1.02.14-.8.8m-17.503 5.517c-1.559 1.181-1.743 2.202-1.16 6.438l.692 5.035-4.685-1.597c-4.548-1.549-4.748-1.532-6.84.582-1.466 1.482-1.644 1.986-.559 1.579 1.828-.687 7.415 5.861 6.401 7.502-1.165 1.885 1.199.989 3.099-1.176 1.581-1.8 1.625-2.067.261-1.572-1.029.374-2.524-.363-4-1.971l-2.356-2.569 2.75.641c1.512.353 3.942.932 5.398 1.287l2.648.645-.71-5.357-.711-5.357 2.062 1.866c1.135 1.027 2.063 2.718 2.063 3.759 0 1.83.081 1.833 2.469.095 2.234-1.627 3.7-4.138 1.689-2.895-1.244.769-7.496-6.046-6.711-7.316.877-1.419.46-1.33-1.8.381M193.5 176c.34.55.816 1 1.059 1s.441-.45.441-1-.477-1-1.059-1-.781.45-.441 1m-97.184 8.943C91.973 186.916 89 191.062 89 195.149c0 1.236 1.149 6.014 2.553 10.617l2.553 8.37 3.197-.696c3.978-.865 7.697-2.242 7.697-2.85 0-.253-.47-1.697-1.046-3.21-.823-2.166-.736-2.923.413-3.566 2.007-1.123-.097-6.814-2.519-6.814-1.864 0-3.383-3.325-2.311-5.059.366-.593 1.262-.848 1.991-.569.739.284 2.522-1.06 4.032-3.04 2.185-2.864 2.44-3.718 1.324-4.425-2.199-1.393-6.049-1.015-10.568 1.036m69.348 10.726c-.872.873 2.267 4.331 3.932 4.331.707 0 1.583-.48 1.945-1.067.396-.64-.08-.94-1.191-.75-1.252.215-1.805-.248-1.711-1.433.137-1.726-1.672-2.383-2.975-1.081M162.2 199.2c-.66.66-1.2 2.01-1.2 3 0 2.216 3.248 2.411 5 .3 1.505-1.813-.028-2.003-2.023-.25-.783.688-.647.313.302-.831 2.354-2.839.51-4.808-2.079-2.219m-9.189 6.287c-1.468 1.769-.656 4.513 1.335 4.513.775 0 1.969-.675 2.654-1.5.993-1.197.993-1.803 0-3-1.565-1.886-2.433-1.889-3.989-.013M155 207c-.901.582-1.025.975-.309.985.655.008 1.469-.435 1.809-.985.767-1.242.421-1.242-1.5 0m-6.32.653c-.364.365-.152 1.278.471 2.029 1.673 2.016.148 2.892-1.895 1.089-1.599-1.411-2.091-1.335-5.506.854-4.228 2.711-4.612 3.843-1.811 5.343 1.368.732 2.142.711 2.625-.072.499-.807.878-.799 1.391.031.388.627 1.422.866 2.298.53 1.406-.54 1.367-.837-.33-2.534-2.519-2.519-2.536-4.788-.019-2.51 1.637 1.482 2.233 1.539 4.25.405 1.29-.725 2.504-1.401 2.697-1.502.192-.101-.518-1.116-1.579-2.255-1.061-1.138-2.228-1.772-2.592-1.408m-8.127 6.262a1.116 1.116 0 0 0 .362 1.532c.521.322 1.21.159 1.532-.362a1.116 1.116 0 0 0-.362-1.532 1.116 1.116 0 0 0-1.532.362M134 215.912c-.825.437-3.3 1.586-5.5 2.552-2.2.967-4.781 2.158-5.736 2.647-.955.489-2.363.889-3.128.889-.765 0-1.97.698-2.678 1.55-1.059 1.276-1.013 1.824.261 3.098 1.312 1.311 1.909 1.347 3.914.235 1.302-.722 2.592-1.367 2.867-1.434.938-.228 4.494-1.695 9.802-4.042 4.79-2.117 5.197-2.54 4.215-4.376-1.173-2.192-1.71-2.341-4.017-1.119m.5 2.088c.34.55.816 1 1.059 1s.441-.45.441-1-.477-1-1.059-1-.781.45-.441 1m-4.312 1.063c.24.721 1.028 1.509 1.75 1.75.75.25 1.125-.125.875-.875-.241-.722-1.029-1.51-1.75-1.75-.75-.25-1.125.125-.875.875M127 220.941c0 .518.45 1.219 1 1.559.55.34 1-.084 1-.941s-.45-1.559-1-1.559-1 .423-1 .941m-23.605.824c-.608.404-1.654 2.42-2.326 4.48-1.018 3.124-1.512 3.589-2.977 2.804-.966-.517-2.337-1.639-3.047-2.494-1.454-1.753-4.61-2.068-5.545-.555-.34.55-.154 1 .412 1 1.524 0 2.99 6.248 1.818 7.75-.676.867-.554 1.245.398 1.235 1.668-.019 4.841-1.948 3.239-1.97-1.055-.014-2.697-4.018-1.953-4.762.184-.185 1.738.846 3.454 2.289l3.118 2.624.886-2.333c.488-1.283 1.097-3.233 1.355-4.333.432-1.843.55-1.803 1.506.5.697 1.682.707 2.909.029 3.75-1.234 1.532-.91 1.546 3.128.139 2.862-.998 3.013-1.239 1.48-2.361-1.034-.755-1.74-2.685-1.789-4.885-.079-3.557-.963-4.356-3.186-2.878m19.896.344c-.566.566-1.852 1.15-2.856 1.298-1.005.147-2.001.791-2.214 1.43-.567 1.701 2.379 1.42 4.2-.401.86-.86 2.017-1.283 2.571-.941.555.343 1.008.173 1.008-.377 0-1.561-1.572-2.146-2.709-1.009m-11.706 2.402c-2.036 3.107-1.461 5.489 1.325 5.489 2.807 0 3.275-1.33 1.746-4.967l-1.334-3.173-1.737 2.651m1.228 3.172c.721.289 1.584.253 1.916-.079.332-.332-.258-.568-1.312-.525-1.165.048-1.402.285-.604.604m-98.879 1.738c1.522 1.833.071 9.562-1.816 9.679-1.973.121 2.583 1.66 5.332 1.8 1.517.078 1.683-.167.75-1.1-1.416-1.416-1.607-4.8-.271-4.8.51 0 1.582.654 2.381 1.452 1.787 1.788 2.69 1.01 2.69-2.319 0-1.97-.267-2.266-1.2-1.333-1.878 1.878-3.8 1.41-3.8-.925 0-1.857.403-2.044 3.2-1.485 1.76.352 3.554 1.196 3.985 1.875.549.864.789.7.8-.546.018-2.11-.813-2.432-7.736-2.997-3.821-.312-4.996-.122-4.315.699m64.849 4.13c-.273.273-.279 1.634-.013 3.024.43 2.25.826 2.455 3.606 1.859 1.718-.368 3.452-.862 3.854-1.098 1.109-.652-1.518-4.336-3.093-4.336-1.043 0-1.108.329-.268 1.342.612.738.818 1.638.456 2-1.127 1.127-2.325.723-2.325-.783 0-1.55-1.404-2.821-2.217-2.008m-45.863.863c-.289.288-.34 2.114-.113 4.055.363 3.116.746 3.531 3.253 3.531 1.61 0 3.328-.758 3.966-1.75 1.071-1.667 1.099-1.667.581 0-.385 1.238.004 1.75 1.331 1.75 1.382 0 1.737-.525 1.352-2-.364-1.391-.031-2 1.093-2 .95 0 1.617.825 1.617 2 0 1.17.667 2 1.607 2 1.055 0 1.398-.544 1-1.582-.334-.87-.607-1.997-.607-2.505 0-.507-2.72-.861-6.043-.786-4.628.104-6.333-.259-7.278-1.551-.679-.928-1.47-1.451-1.759-1.162M46.5 235c-.34.55-.141 1 .441 1S48 235.55 48 235s-.198-1-.441-1-.719.45-1.059 1m25.7.2c-2.799 2.799.21 5.721 3.872 3.761 2.334-1.249 2.514-3.522.346-4.354-2.232-.857-2.856-.769-4.218.593m-9.2 1.218c0 2.65 1.209 4.582 2.857 4.567 2.788-.026 4.098-1.442 3.489-3.771-.429-1.64-1.327-2.214-3.463-2.214-1.822 0-2.883.522-2.883 1.418M26 237c-1.213.784-1.069.972.75.985 1.238.008 2.25.423 2.25.921 0 .499-.96.656-2.134.349-1.535-.402-2.005-.165-1.673.843.254.771 1.854 1.54 3.555 1.709 2.789.278 3.037.08 2.511-2-.886-3.503-2.691-4.467-5.259-2.807m25.189.605c-.869.635-1.245 1.807-.883 2.751.491 1.278 1.587 1.547 4.913 1.202 2.355-.244 5.054-.469 5.999-.501 1.357-.045 1.542-.53.882-2.307-.688-1.853-1.592-2.25-5.117-2.25-2.354 0-4.962.497-5.794 1.105M73 237c0 .55.675 1 1.5 1s1.5-.45 1.5-1-.675-1-1.5-1-1.5.45-1.5 1m-17.312.732c-2.399.249-3.65.836-3.375 1.582.24.652 1.056.997 1.812.765.756-.232 2.388-.457 3.625-.5 1.237-.043 2.25-.641 2.25-1.329 0-.687-.112-1.174-.25-1.082-.138.093-1.965.346-4.062.564M65.5 238c.34.55 1.068 1 1.618 1s.722-.45.382-1c-.34-.55-1.068-1-1.618-1s-.722.45-.382 1M35 239.5c0 .917.484 1.505 1.075 1.308.591-.197 1.075-.786 1.075-1.308s-.484-1.111-1.075-1.308c-.591-.197-1.075.391-1.075 1.308" fill="#1976D2" fill-rule="evenodd"/><path fill-opacity=".095" d="M93 12.979c0 4.595-6.011 10.509-11.651 11.462-6.041 1.021-11.857-1.049-15.76-5.608l-3.256-3.804-7.916 3.853c-4.354 2.119-10.499 5.873-13.656 8.341-5.617 4.393-5.697 4.525-3.787 6.253 1.073.971 2.466 3.327 3.095 5.234 3.382 10.246-5.082 19.111-17.198 18.012l-5.735-.52-1.493 3.732C13.755 64.654 11 77.876 11 82.221c0 3.162.228 3.36 5.242 4.551 14.171 3.366 17.216 18.837 5.173 26.281l-3.484 2.153 2.669 4.647c3.245 5.648 9.419 13.877 12.783 17.037l2.477 2.327 8.82-4.466c11.506-5.827 20.511-10.713 22.053-11.966.92-.748-.405-2.584-5.229-7.244-9.061-8.754-13.517-18.207-14.27-30.267-.314-5.037-1.083-9.265-1.818-10.001-1.717-1.717-2.759-1.609-2.059.215.315.821.066 1.381-.554 1.25-.619-.131-1.41.882-1.757 2.252-.428 1.687-.879 2.09-1.398 1.25-.421-.682-.559-1.577-.306-1.99.253-.412.728-2.444 1.056-4.515.973-6.149 5.962-15.874 10.999-21.442 9.039-9.991 23.985-17.386 37.785-18.695 2.992-.284 6.274-.836 7.293-1.227 1.276-.489 1.63-.35 1.137.448-.468.756-.178.952.836.563.854-.328 1.552-.977 1.552-1.442 0-.95 7.127-3.146 7.853-2.42.257.256-.965.752-2.714 1.102-1.749.35-3.393.98-3.653 1.4-.55.891 4.484 2.341 5.299 1.527.301-.302-.277-.549-1.285-.549-2.506 0-1.043-1.285 1.75-1.538 1.238-.112 2.147-.683 2.021-1.269-.126-.586.662-.998 1.75-.916 2.446.184 2.536 1.265.229 2.749-1.64 1.054-1.641 1.091-.014.586 1.351-.419 1.691.003 1.534 1.902-.19 2.285-.459 2.394-4.236 1.713-5.994-1.08-21.46-.743-26.034.569-3.31.949-4 1.583-4 3.675 0 1.391.083 2.529.185 2.529s1.415-.468 2.92-1.04c3.816-1.451 19.884-1.384 25.895.108 7.228 1.793 14.329 5.115 19.625 9.179l4.625 3.549 6.875-4.652a536.916 536.916 0 0 1 13.789-8.964l6.914-4.313-2.998-2.998-2.997-2.998-3.417 1.991c-5.168 3.013-9.958 3.565-14.491 1.671-7.776-3.249-11.633-9.628-9.508-15.725.601-1.723.941-3.283.756-3.468-1.263-1.263-17.711-4.604-24.923-5.062L93 9.723v3.256m92.886 12.397c-2.961 1.545-45.055 29.027-48.87 31.905l-2.483 1.874 2.483-.608c1.366-.334 6.227-1.197 10.802-1.917l8.318-1.309-8.318 8.411c-4.575 4.626-13.465 12.991-19.756 18.589-6.29 5.599-12.615 11.304-14.055 12.679-4.87 4.65.435.431 11.993-9.538 6.325-5.456 12.105-10.38 12.844-10.941.739-.562 2.427-2.099 3.75-3.417 2.228-2.219 2.912-2.109 2.464.396-.099.55 4.109-3.252 9.349-8.449 5.241-5.196 9.359-9.618 9.151-9.827-.209-.208-4.295.355-9.082 1.252-4.786.897-8.88 1.454-9.096 1.237-.217-.216 9.151-6.748 20.817-14.516 11.666-7.767 21.32-14.014 21.452-13.881.133.132-1.284 6.29-3.149 13.684-1.865 7.394-3.252 13.581-3.084 13.749.3.301 10.584-29.001 10.584-30.158 0-1.054-3.433-.614-6.114.785M74.8 39.679c1.03.413.973 1.018-.273 2.921-1.964 2.996-1.257 3.1 1.435.21 1.544-1.657 1.736-2.384.789-2.985-.688-.437-1.701-.766-2.251-.731-.55.035-.415.298.3.585m8.897 10.82c-11.176 3.073-21.63 12.39-25.175 22.438-2.105 5.966-1.953 16.906.316 22.88 3.488 9.18 15.541 21.872 18.632 19.62.707-.515 4.701-3.187 8.875-5.937 4.174-2.75 7.604-5.281 7.622-5.625.018-.344-1.204-.874-2.717-1.178-6.95-1.396-13.681-8.722-14.787-16.094-1.072-7.153 3.864-15.839 10.583-18.622 2.56-1.06 4.585-3.683 3.602-4.666-.703-.704-9.043 2.965-12.308 5.415-2.431 1.823-3.333 2.07-3.91 1.07-.413-.715-.416-1-.007-.633.863.773 4.577-2.656 4.577-4.226 0-.582.412-.805.915-.494.503.311 1.102.002 1.332-.687.229-.688 1.055-1.297 1.835-1.353.78-.057 2.318-.203 3.418-.325l2-.223-2-.927c-1.482-.687-1.119-.769 1.4-.317 2.854.512 3.301.351 2.782-1.003C90.238 58.456 90.636 58 92.09 58c1.129 0 1.747-.454 1.395-1.024-.415-.672.766-.8 3.441-.372 2.843.455 4.074.293 4.074-.535 0-.653-.45-.909-1-.569-.55.34-1 .141-1-.441 0-1.267 3.944-1.381 5.857-.169.918.582 1.145 1.826.701 3.844-.589 2.684-.323 3.119 2.644 4.338C112.597 64.876 121 72.798 121 75.137c0 1.025.45 1.863 1 1.863 1.846 0 1.023 1.858-1.125 2.54-1.333.423-2.445.168-2.985-.683-1.003-1.583-1.118-.308-.26 2.893.567 2.113 1.036 1.873 7.737-3.961 3.923-3.416 7.279-6.299 7.457-6.407.98-.594-3.305-6.558-7.595-10.571-11.063-10.348-27.004-14.306-41.532-10.312m165.314 7.988c-.679.818-.961 2.202-.626 3.074.737 1.921 3.789 1.529 4.358-.561.336-1.233.238-1.255-.555-.122-1.002 1.433-3.188.75-3.188-.996 0-.55.45-.722 1-.382.55.34 1-.084 1-.941 0-1.945-.422-1.96-1.989-.072m-83.604 9.763C123.903 125.279 62.086 170.873 29.134 168.758c-7.012-.45-7.283-.392-4.645.99 7.811 4.093 22.98 1.877 39.203-5.725l8.693-4.074 7.058 1.505c3.881.828 10.191 1.627 14.021 1.776l6.964.27.615-3.664c.857-5.109 3.32-8.47 7.932-10.823 7.338-3.744 14.157-2.369 20.082 4.048l3.653 3.958 3.895-1.625c4.481-1.87 15.296-8.895 20.335-13.208l3.441-2.945-2.691-3.198c-9.03-10.731-.315-24.577 14.253-22.645l4.722.626 1.745-6.262c.96-3.444 1.998-10.138 2.307-14.875l.561-8.612-3.854-.723c-2.12-.398-5.068-1.351-6.551-2.118-2.578-1.333-6.873-5.949-6.873-7.387 0-1.043 6.328-9.047 7.153-9.047.398 0 1.028 2.025 1.399 4.5s1.122 4.5 1.669 4.5c.546 0 .761-.604.478-1.343-.284-.739-.834-3.889-1.223-7-.388-3.111-1.012-5.657-1.386-5.657-.373 0-3.38 3.712-6.683 8.25M140 63c-.901.582-1.025.975-.309.985.655.008 1.469-.435 1.809-.985.767-1.242.421-1.242-1.5 0m105 2.452c0 .916.454 1.385 1.009 1.042 1.345-.831 4.991.376 4.991 1.653 0 .597-1.192.75-2.905.374-1.666-.366-3.184-.187-3.559.42-.393.636.335 1.059 1.823 1.059 1.363 0 3.189.273 4.059.607 1.233.473 1.582-.078 1.582-2.5 0-2.396-.439-3.107-1.918-3.107-1.055 0-2.63-.273-3.5-.607-1.053-.404-1.582-.049-1.582 1.059M47.079 73.583c.048 1.165.285 1.402.604.605.289-.722.253-1.585-.079-1.917-.332-.332-.568.258-.525 1.312M246.5 73c-.34.55-.141 1 .441 1S248 73.55 248 73s-.198-1-.441-1-.719.45-1.059 1m-.5 3.035c0 1.433 2.118 2.247 3.153 1.212.639-.639.261-1.167-1.087-1.519-1.136-.298-2.066-.159-2.066.307m-1.417 4.608c-.346.904-.394 1.879-.107 2.167.288.288.524-.054.524-.76 0-.777.764-1.083 1.935-.777 1.119.292 2.161-.08 2.469-.884.362-.944-.223-1.389-1.828-1.389-1.299 0-2.646.739-2.993 1.643m-1.025 4.132c-.98.981-.599 2.007.692 1.864.688-.076 1.342.311 1.454.861.112.55-.951.849-2.362.664-1.656-.217-2.328.049-1.895.75 1.694 2.741 6.553.607 6.553-2.879 0-.987-3.673-2.029-4.442-1.26M67.7 86.341c-.283.737-.132 1.959.335 2.716.484.783.437 1.875-.109 2.533-1.145 1.379-.187 4.381 1.431 4.48.629.039.243.457-.857.93-1.673.719-1.718.871-.278.93 1.388.056 1.656.84 1.385 4.042l-.337 3.972 2.835-2.019c3.503-2.494 4.228-3.601 2.897-4.424-1.724-1.065-4.943-8.143-5.192-11.418-.246-3.221-1.231-4.034-2.11-1.742m81.875 4.788c-1.592 1.547-1.654 1.871-.357 1.871.862 0 1.852-.739 2.199-1.643.891-2.322.378-2.386-1.842-.228m92.675 2.367c-1.914 2.174-1.485 3.027.581 1.157 1.007-.912 2.132-1.356 2.5-.989.368.368.669.144.669-.497 0-1.598-2.226-1.402-3.75.329m-95.17 2.254c-.576.989-1.032 1.202-1.05.491-.031-1.3-35.432 33.342-35.655 34.89-.312 2.166-.455 2.291-1.229 1.072-.656-1.035-1.087-.979-2.126.273-1.117 1.346-1.045 1.471.503.877 1.242-.477 1.58-.328 1.082.477-1.372 2.22.925 1.164 2.748-1.264 1.65-2.198 5.419-2.623 4.082-.461-1.015 1.643 1.232.921 2.912-.936.912-1.007 1.329-2.16.928-2.561-.402-.401.507-.505 2.018-.231 1.575.285 2.501.098 2.168-.44-.318-.515.558-.937 1.949-.937 1.831 0 2.369-.411 1.954-1.494-.316-.822-.976-1.246-1.469-.941-1.544.954-.974-.256.797-1.693.964-.781 1.387-.864.984-.191-.39.649-.282 1.444.239 1.766.521.322 1.234.121 1.585-.447.351-.568 1.092-.752 1.646-.41 1.118.691 3.916-1.969 5.826-5.538.871-1.626 1.469-1.957 1.996-1.103.557.9.913.804 1.361-.365.335-.871.146-1.584-.419-1.584-.566 0-.75-.45-.41-1s1.604-1.007 2.809-1.015c1.766-.013 1.901-.199.696-.961-1.282-.81-1.211-1.153.498-2.403 1.097-.802 1.657-1.794 1.245-2.206-.411-.412-.748-.237-.748.387s-.672.877-1.494.562c-2.271-.872-.833-2.224 2.031-1.909 1.391.152 2.287.036 1.992-.259-.295-.295.187-1.64 1.071-2.989.884-1.349 1.111-2.146.504-1.771s-1.104.191-1.104-.408c0-.6.675-1.35 1.5-1.666.825-.317 1.5-1.004 1.5-1.528s-.45-.674-1-.334c-1.721 1.064-1.09-.712.75-2.108 1.623-1.232 1.626-1.331.05-1.36-.935-.018-2.159.755-2.72 1.718M239 97.782c0 .43 1.125.875 2.5.989 1.375.113 2.5-.238 2.5-.782S242.875 97 241.5 97s-2.5.352-2.5.782m-134.5 4.828-4 3.579 4.25-3.178c3.658-2.736 4.977-4.054 4-3.996-.138.008-2.05 1.626-4.25 3.595m133.5-.828c0 .43 1.125.875 2.5.989 1.375.113 2.5-.238 2.5-.782s-1.125-.989-2.5-.989-2.5.352-2.5.782m-94.128 1.968c-1.243 1.586-1.208 1.621.378.378.963-.755 1.75-1.543 1.75-1.75 0-.823-.821-.294-2.128 1.372m90.667.044c-.315.315.864 1.176 2.619 1.915 1.755.738 3.574.959 4.041.492.468-.468-.711-1.329-2.618-1.915-1.908-.585-3.727-.807-4.042-.492M95.5 109.197c-6.04 4.423-6.663 5.538-1 1.789 6.089-4.031 5.929-3.902 5.417-4.352-.229-.201-2.217.952-4.417 2.563m140.579-1.006c-.103 2.205 1.79 3.34 3.208 1.922.817-.817.683-1.113-.504-1.113-.889 0-1.843-.562-2.121-1.25-.31-.77-.534-.6-.583.441m-2.572 4.798c-.341.552.03.742.84.431.798-.306 1.752-.068 2.121.528.739 1.195 2.532.482 2.532-1.007 0-1.253-4.714-1.212-5.493.048M80.5 119.672c-18.418 12.88-40.162 23.822-54.591 27.47-9.843 2.489-15.928 1.93-19.666-1.808-2.249-2.249-2.452-3.091-1.987-8.22.346-3.811 1.74-8.143 4.186-12.999 4.407-8.752 4.195-11.885-.279-4.115-9.05 15.72-9.971 28.101-2.39 32.14 4.353 2.319 16.558 1.581 25.727-1.556 11.028-3.772 24.881-10.731 23.304-11.705-.685-.424-.932-1.084-.549-1.467s1.324-.176 2.091.461c1.088.902 1.92.701 3.775-.911l2.379-2.068-2.5.663c-1.375.365 4.346-3.902 12.712-9.481 12.78-8.522 17.76-12.247 16.097-12.037-.17.021-3.909 2.556-8.309 5.633m53.741-2.686c-1.88 3.01-1.487 3.655.759 1.244 2.118-2.273 2.485-3.23 1.241-3.23-.418 0-1.318.894-2 1.986m98.317-1.211c-.93.931-.624 2.384.373 1.768.512-.317 1.218-.111 1.569.457.684 1.107 2.5.423 2.5-.942 0-1.004-3.663-2.062-4.442-1.283m-9.413 2.806c-.638 1.401-.736 2.285-.219 1.964 1.607-.992 9.071 2.542 9.109 4.314.025 1.142.452.89 1.403-.828 1.324-2.392 1.238-2.51-2.786-3.832-2.284-.751-4.646-1.994-5.249-2.764-.9-1.148-1.307-.941-2.258 1.146M129.5 118c-.34.55-.141 1 .441 1s1.059-.45 1.059-1-.198-1-.441-1-.719.45-1.059 1m33.105 2.299c-2.157 1.578-1.854 6.531.49 7.997.878.549 2.79.699 4.25.332 2.231-.56 2.655-1.217 2.655-4.112 0-4.774-3.726-6.899-7.395-4.217m-151.573 6.795c-1.667 3.523-2.969 7.756-2.895 9.406.105 2.329.232 2.501.567.767.281-1.46 1.187-2.263 2.613-2.319l6.933-.267c2.613-.099 4.75-.227 4.75-.283 0-.056-2.011-3.163-4.469-6.905l-4.469-6.804-3.03 6.405M115 127.059c0 .582.45.781 1 .441s1-.816 1-1.059-.45-.441-1-.441-1 .477-1 1.059m58.86 2.691c-4.291 5.181-4.616 4.496 6.127 12.893 5.53 4.321 10.424 7.983 10.876 8.138.863.295 6.726-7.595 6.036-8.121-2.227-1.695-21.044-14.66-21.278-14.66-.171 0-.963.787-1.761 1.75M224.5 131c-.34.55.084 1 .941 1s1.559-.45 1.559-1-.423-1-.941-1-1.219.45-1.559 1m3.579 1.317c-.059 1.351-.592 1.655-2.079 1.183-2.101-.667-2.787.896-.904 2.059 1.461.903 4.279-2.003 3.599-3.711-.357-.896-.564-.739-.616.469m-6.412 3.35c-1.194 1.193-.702 5.333.633 5.333 1.577 0 3.711-2.006 3.67-3.45-.017-.578-.489-.263-1.05.7-1.545 2.652-3.236 2.147-2.509-.75.639-2.547.446-3.023-.744-1.833m-3.676 6.844c-1.061 1.278-1.016 1.436.266.944.848-.325 1.842-.103 2.211.493.779 1.261 2.532.449 2.532-1.174 0-.609-.296-.811-.658-.449-.362.362-1.202.206-1.867-.346-.837-.695-1.602-.531-2.484.532m-55.491.65c-2.993 1.645-5.453 5.054-5.478 7.589-.016 1.594-.619 2.25-2.072 2.25-2.891 0-7.701 2.666-8.92 4.945-2.261 4.223-1.171 7.608 5.047 15.673 3.342 4.335 6.604 7.983 7.25 8.106.645.123 2.714-1.1 4.597-2.718l3.424-2.942-6.308-7.098c-4.936-5.554-6.042-7.355-5.082-8.282.955-.922 2.588.309 7.384 5.566 3.387 3.713 6.632 6.751 7.212 6.75.579 0 2.488-1.48 4.241-3.288l3.186-3.288-6.49-6.433c-3.57-3.538-6.491-6.784-6.491-7.212 0-2.091 3.024-.206 8.71 5.43l6.265 6.208 3.512-3.405c1.932-1.872 3.513-3.706 3.513-4.074 0-.857-13.798-12.256-16.684-13.783-2.684-1.419-4.227-1.418-6.816.006m53 2.839c-.34.55.084 1 .941 1s1.559.436 1.559.969c0 .532-.681.707-1.513.388-1.682-.646-4.504 1.264-4.457 3.015.017.621.503.316 1.081-.677.863-1.483 1.321-1.581 2.564-.55 1.256 1.042 1.829.839 3.365-1.194 1.72-2.276 1.731-2.499.156-3.131-2.429-.973-3-.946-3.696.18m-1.5 6.031c0 .533.675.969 1.5.969s1.5-.177 1.5-.393c0-.216-.675-.652-1.5-.969-.825-.316-1.5-.139-1.5.393m-4.313 1.667c-.284.459.543 1.335 1.838 1.946 1.849.873 2.468.815 2.884-.266.29-.758.129-1.378-.359-1.378-.487 0-1.553-.256-2.367-.568-.814-.313-1.713-.193-1.996.266m-2.076 3.122c-.265.429.368 1.311 1.407 1.959 1.039.649 2.106.829 2.371.401.265-.429-.368-1.311-1.407-1.959-1.039-.649-2.106-.829-2.371-.401m-2.944 2.847c-1.05 1.05-.779 4.146.429 4.892 1.597.987 4.089-1.914 3.334-3.881-.655-1.708-2.556-2.218-3.763-1.011m.936 2.5c.283.458.938.833 1.456.833s.941-.375.941-.833c0-.459-.655-.834-1.456-.834-.801 0-1.224.375-.941.834m-4.455 1.72c-1.062.673-.866 1.197.913 2.443 1.246.873 2.719 1.306 3.273.964.554-.343.002-.995-1.227-1.45-1.23-.455-1.955-1.281-1.612-1.836.755-1.221.435-1.25-1.347-.121m-70.933 5.123c-1.806 1.101-3.635 2.95-4.063 4.109-.603 1.629-1.729 2.152-4.968 2.309-4.905.238-10.184 4.519-10.184 8.258 0 1.774 7.156 19.487 8.538 21.134.229.273 8.358-3.535 9.288-4.352.179-.157-1.554-3.71-3.85-7.895-2.427-4.422-3.92-8.277-3.564-9.203.916-2.388 2.513-.584 7.077 7.996l3.988 7.499 4.709-2.563 4.709-2.563-3.581-5.619c-1.969-3.091-4.196-6.508-4.947-7.593-.752-1.084-1.367-2.547-1.367-3.25 0-2.991 2.4-.77 7.213 6.675l5.14 7.952 2.574-1.526c6.993-4.147 7.012-3.387-.324-13.239-8.276-11.116-10.047-11.995-16.388-8.129M198 167.759c0 1.103 3.678 3.23 4.377 2.531.325-.326-.189-1.185-1.143-1.909-1.968-1.495-3.234-1.738-3.234-.622m-2.448 3.157c-.297.481.16 1.143 1.017 1.472.857.329 1.264 1.073.905 1.653-.448.725-1.102.683-2.087-.135-.79-.655-1.749-.877-2.132-.494s-.048 1.098.745 1.588 1.128 1.205.745 1.588c-.383.383-1.323.177-2.088-.458-1.066-.884-1.661-.83-2.542.231-1.109 1.337-.573 4.672.742 4.607.761-.037 4.931-3.757 7.353-6.559 1.619-1.873 1.609-2.041-.204-3.173-1.052-.657-2.157-.801-2.454-.32m-15.332 5.264c-1.372 1.372-1.684 4.225-.373 3.415 1.409-.871 6.468 5.078 5.59 6.574-.429.732.173.495 1.339-.527l2.12-1.858-3.042-2.561c-1.674-1.408-3.351-3.393-3.728-4.412-.539-1.457-.945-1.592-1.906-.631M190 178c0 .55.702 1 1.559 1s1.281-.45.941-1c-.34-.55-1.041-1-1.559-1s-.941.45-.941 1m-9.842 5c0 1.375.227 1.938.504 1.25.278-.687.278-1.812 0-2.5-.277-.687-.504-.125-.504 1.25m-81.474 1.473c-4.663 1.634-7.128 3.771-8.686 7.533-1.005 2.424-.771 4.28 1.533 12.177 1.496 5.124 2.793 9.41 2.884 9.524.091.113 2.172-.398 4.625-1.135 4.205-1.265 4.444-1.53 4.183-4.631-.153-1.809.239-3.609.871-3.999 1.781-1.101-.358-6.441-2.581-6.447-1.913-.005-3.561-3.128-2.768-5.245.258-.687 1.433-1.258 2.612-1.267 1.263-.01 3.056-1.323 4.364-3.196 1.222-1.748 2.122-3.252 2-3.342-1.42-1.052-5.996-1.038-9.037.028m70.919.911c-1.169.923-.867 1.541 1.742 3.572 2.824 2.199 2.955 2.225 1.25.25-2.094-2.424-1.859-2.624 1.59-1.352 5.115 1.885 7.815 2.202 7.813.915-.003-1.903-10.605-4.799-12.395-3.385m5.397 8.585c0 .532.675.709 1.5.393.825-.317 1.5-.753 1.5-.969 0-.216-.675-.393-1.5-.393s-1.5.436-1.5.969m-9 2.909c0 .482.694 1.453 1.542 2.157 1.255 1.041 1.768 1.037 2.75-.024.948-1.024.937-1.151-.049-.594-.726.41-1.51.05-1.857-.854-.637-1.66-2.386-2.163-2.386-.685m-4.62 3.574c-1.3 3.387 2.42 4.81 4.699 1.798 1.127-1.489 1.115-1.563-.077-.5-1.863 1.661-2.663 1.576-3.406-.361-.443-1.153-.189-1.447.893-1.032.831.319 1.511.144 1.511-.388 0-1.529-3.002-1.128-3.62.483m-7.895 4.935c-1.101.805-1.563 1.968-1.179 2.968.347.905.195 1.645-.337 1.645-.533 0-.969-.45-.969-1s-.765-1-1.7-1c-1.322 0-1.433.267-.5 1.2.66.66 1.2 1.56 1.2 2 0 1.297-2.793.914-3.28-.45-.245-.687-.728-.992-1.073-.677-.344.315-.047 1.366.661 2.334 1.205 1.647 1.626 1.551 6.49-1.472 5.101-3.171 7.147-5.046 3.202-2.935-2.43 1.301-2.791-.458-.372-1.812.922-.516 1.203-1.174.648-1.518-.54-.333-1.796-.01-2.791.717M142 211.777c0 .428.659 1.719 1.465 2.869.805 1.15 1.18 2.375.833 2.723-.347.347-.181.631.369.631 1.978 0 2.124-1.203.493-4.07-1.574-2.766-3.16-3.846-3.16-2.153M139 215c0 1.442.628 1.968 2.25 1.884 1.804-.093 1.889-.209.427-.587-1.073-.278-1.601-1.054-1.282-1.884.298-.777.106-1.413-.426-1.413-.533 0-.969.9-.969 2m-4 .941c0 .518.457 1.224 1.016 1.569.559.346.761 1.042.448 1.548-.312.505.109.659.937.342 1.219-.468 1.278-.941.311-2.489-1.264-2.025-2.712-2.543-2.712-.97m-3.25 1.721c.688.278 1.25 1.142 1.25 1.921 0 .78.498 1.417 1.107 1.417s.834-.712.5-1.582c-.334-.87-.607-1.77-.607-2 0-.23-.787-.382-1.75-.339-1.045.047-1.247.282-.5.583M128.491 220c.984 3.249 1.335 3.574 2.549 2.36.676-.676.298-1.641-1.149-2.934-2.154-1.924-2.156-1.923-1.4.574m-5.275.845c-1.47.933-.58 4.163 1.141 4.14 2.198-.03 3.706-1.658 3.07-3.315-.696-1.813-2.191-2.106-4.211-.825m-19.775 1.636c-1.331 1.016-1.588 1.723-.817 2.25.619.423 1.442 2.232 1.83 4.019.755 3.479 1.203 3.764 3.546 2.25.868-.561 1.006-.976.328-.985-1.411-.018-3.732-6.552-2.84-7.995.877-1.42.226-1.273-2.047.461m20.134-.602c-.31.501.109 1.169.931 1.485.822.315 1.494.164 1.494-.336 0-1.356-1.777-2.198-2.425-1.149m-5.325.783c-2.06.831-1.501 4.338.691 4.338 1.068 0 2.193-.408 2.501-.907.309-.498-.34-.671-1.441-.383-2.464.644-2.644-1.236-.251-2.63 1.788-1.041.757-1.328-1.5-.418m-7.233 2.806c-.689 1.288-.948 2.834-.576 3.437.843 1.364 3.236 1.427 4.052.106.35-.566-.051-.734-.941-.393-1.134.436-1.548-.039-1.537-1.761.012-1.843.218-2.037.946-.886.512.809 1.233 1.168 1.604.798.37-.371.005-1.342-.811-2.158-1.312-1.312-1.629-1.213-2.737.857m-19.999.282c.033 1.37 7.969 7.376 8.947 6.772.528-.327-.765-2.153-2.873-4.058-3.623-3.273-6.114-4.386-6.074-2.714M15 231.935c0 1.614-.439 4.089-.975 5.5-.843 2.217-.707 2.565 1 2.565 1.559 0 1.978-.685 1.989-3.25.007-1.787.285-4.262.616-5.5.444-1.654.175-2.25-1.013-2.25-1.122 0-1.617.899-1.617 2.935m8-1.542c0 .216.675.652 1.5.969.825.316 1.5.139 1.5-.393 0-.533-.675-.969-1.5-.969s-1.5.177-1.5.393m-2.797 3.461c-1.037.657-.986 1.081.25 2.107 1.313 1.09 1.547.964 1.547-.839 0-2.391-.013-2.4-1.797-1.268m62.761.602c.664.801.882 1.984.483 2.63-.43.695-.23 1.008.489.769.668-.223 1.18-.731 1.139-1.13-.041-.399-.075-1.4-.075-2.225 0-.825-.73-1.5-1.622-1.5-1.308 0-1.388.283-.414 1.456m9.694-.007c-.371.967-.076 1.265.887.895.794-.304 1.195-.956.89-1.449-.766-1.24-1.132-1.126-1.777.554m-13.916 1.98c.279 1.459.978 2.232 1.751 1.935 1.585-.608.75-4.364-.971-4.364-.779 0-1.071.909-.78 2.429m-45.933 2.063c.482 4.126 2.191 3.696 2.191-.551 0-1.746-.528-2.941-1.299-2.941-.896 0-1.173 1.085-.892 3.492m30.997-2.952c-.623 1.047.957 6.03 1.682 5.305.245-.245.096-1.755-.332-3.355-.428-1.601-1.036-2.478-1.35-1.95m7.861.127c-1.14 1.139-.732 3.333.619 3.333.707 0 1.285-.9 1.285-2 0-2.037-.706-2.532-1.904-1.333M75.429 237c0 1.113.466 1.868 1.035 1.679.57-.19 1.036-.946 1.036-1.679 0-.733-.466-1.489-1.036-1.679-.569-.189-1.035.566-1.035 1.679m-17.888-.067c-.388.629-.028.807.907.449 1.1-.423 1.552.018 1.552 1.511 0 1.159.481 2.107 1.07 2.107.588 0 .925-1.008.75-2.24-.339-2.371-3.19-3.588-4.279-1.827m9.337-.029c.758.48 1.069 1.373.691 1.984-.385.623-.042 1.112.778 1.112.973 0 1.29-.672.943-2-.288-1.1-1.258-1.993-2.157-1.985-1.317.013-1.366.185-.255.889M29 238.941c0 1.068.45 2.219 1 2.559.567.351 1-.49 1-1.941 0-1.407-.45-2.559-1-2.559s-1 .873-1 1.941m7.776-.765c.859.859.88 1.534.078 2.5-1.359 1.638.304 1.766 1.922.148 1.29-1.29-.1-3.824-2.098-3.824-.715 0-.681.397.098 1.176M40.5 239.5c0 1.375.563 2.5 1.25 2.5.688 0 1.25-1.125 1.25-2.5s-.562-2.5-1.25-2.5c-.687 0-1.25 1.125-1.25 2.5m4.962-1.152c1.014.742 1.523 1.867 1.132 2.5-.41.663-.109 1.152.708 1.152.976 0 1.271-.782.943-2.5-.327-1.71-1.134-2.5-2.553-2.5-1.985 0-1.995.058-.23 1.348m5.205-.681c-1.086 1.085-.762 3.083.583 3.599.784.3 1.25-.406 1.25-1.893 0-2.386-.598-2.942-1.833-1.706M25.5 240c-.34.55-.141 1 .441 1S27 240.55 27 240s-.198-1-.441-1-.719.45-1.059 1m31.5 0c0 .55.477 1 1.059 1s.781-.45.441-1-.816-1-1.059-1-.441.45-.441 1" fill="#1976D2" fill-rule="evenodd"/><path fill-opacity=".217" d="M93.567 13.495c-.398 2.123-2.11 4.925-4.361 7.139-2.408 2.367-2.92 3.234-1.462 2.473 1.233-.644 3.217-2.488 4.409-4.099 1.191-1.611 2.656-2.65 3.256-2.308.6.341.76.255.356-.191-.404-.447.496-1.453 2-2.236 2.665-1.387 4.571-1.793 10.735-2.284 2.54-.203 2.309-.362-1.5-1.04-2.475-.44-6.362-.834-8.639-.875-3.956-.071-4.167.08-4.794 3.421m20.74 3.005c.774 3.383 1.499 4.5 2.92 4.5 1.04 0 1.613.45 1.273 1-.349.565.47 1 1.882 1 2.71 0 4.273 1.477 2.634 2.49-.559.345-1.016.125-1.016-.49s-.48-.821-1.067-.459c-1.424.881-.507 1.672 2.284 1.972 2.137.229 2.287-.126 2.343-5.556l.059-5.8-5.625-1.579C116.9 12.71 114.123 12 113.823 12c-.3 0-.082 2.025.484 4.5m-58.335 1.8c-7.3 3.674-17.172 10.032-19.001 12.236-1.939 2.335-.554 1.71 3.641-1.643 2.139-1.709 4.788-3.515 5.888-4.013 1.1-.498 3.447-1.781 5.215-2.853 1.873-1.134 3.465-1.545 3.811-.985.369.597 1.429.504 2.785-.243 2.993-1.65 4.832-1.603 7.189.184 1.919 1.456 1.935 1.436.39-.483-.886-1.1-2.023-2.778-2.528-3.729-.839-1.58-1.474-1.449-7.39 1.529M57 19c-.901.582-1.025.975-.309.985.655.008 1.469-.435 1.809-.985.767-1.242.421-1.242-1.5 0m58 4c0 .55.477 1 1.059 1s.781-.45.441-1-.816-1-1.059-1-.441.45-.441 1m-44.267 1.124c.679.684 1.486.991 1.793.683.308-.308-.247-.867-1.233-1.243-1.425-.542-1.54-.428-.56.56M79 25l-4.5.7 4 .134c2.2.075 4.675-.301 5.5-.834.825-.533 1.05-.909.5-.834-.55.074-3.025.449-5.5.834m108.154.067c-2.473.991-39.154 24.9-39.154 25.521 0 .957 15.829-8.188 26.851-15.512 6.793-4.515 12.558-8 12.812-7.746.254.254-.466 4.369-1.601 9.145-1.134 4.775-2.04 8.985-2.012 9.354.043.581 5.951-15.186 7.523-20.079.626-1.951-.732-2.161-4.419-.683m-37.477 8.301c-2.132 1.609-4.253 2.132-8.655 2.132-3.207 0-5.311.331-4.677.735.635.404 2.843.741 4.905.75 3.007.012 3.75.39 3.75 1.908 0 1.041.704 2.163 1.563 2.493.86.33 1.287 1.048.949 1.595-.339.547 2.122-.636 5.468-2.629 5.922-3.527 6.037-3.676 4.313-5.581-3.075-3.398-4.602-3.679-7.616-1.403M100.5 37c1.928.829 1.921.862-.191.93-1.205.038-2.492.557-2.859 1.151-.402.65.074.988 1.191.847 1.022-.13 2.534.015 3.359.321.825.305 3.75 1.121 6.5 1.812 6.205 1.56 15.174 5.952 19.377 9.489 2.878 2.422 3.452 2.556 6.149 1.439 5.141-2.129 3.879-3.767-7.39-9.585-7.275-3.756-19.894-7.451-25.046-7.334-2.632.06-2.794.198-1.09.93m41.5 2.059c0 .582.45.781 1 .441s1-.816 1-1.059-.45-.441-1-.441-1 .477-1 1.059M92.813 49.683c.721.289 1.584.253 1.916-.079.332-.332-.258-.568-1.312-.525-1.165.048-1.402.285-.604.604m-10.969 1.711c-8.479 3.029-19.919 12.057-18.397 14.52.967 1.565 2.864 1.34 2.248-.267-.639-1.664 3.247-5.204 5.305-4.834 1.174.212 1.215.077.19-.617-1.667-1.13 3.336-4.65 6.297-4.431 1.39.102 1.595-.096.683-.66-1.399-.864 1.163-2.164 7.83-3.974 1.925-.523 2.6-.971 1.5-.997-1.1-.025-3.645.541-5.656 1.26m26.763 1.189c-.392 1.019.259 1.417 2.317 1.417 2.808 0 4.694 2.191 3.52 4.09-.309.501-.134.91.39.91s1.261-.788 1.638-1.75c.575-1.466.958-1.23 2.357 1.45.919 1.761 2.009 3.223 2.421 3.25.412.028 1.393.05 2.179.05 1.88 0 4.746 2.908 4.021 4.081-.312.505.134.919.991.919 1.603 0 2.144 1.506.809 2.253-.412.23-.231.299.402.152 1.882-.436 2.419.798 1.089 2.503-1.094 1.404-1.037 1.432.486.239 1.608-1.261 1.519-1.657-1.304-5.758-5.264-7.652-20.012-17.204-21.316-13.806m35.393.506c-2.154 1.762-2.196 1.897-.306.973 1.207-.59 2.471-1.52 2.809-2.067.903-1.461.297-1.196-2.503 1.094m13.813 1.594c.721.289 1.584.253 1.916-.079.332-.332-.258-.568-1.312-.525-1.165.048-1.402.285-.604.604M16.906 58.176c-.587 1.097-.848 2.216-.578 2.485.269.269.771-.398 1.115-1.483.433-1.361 1.235-1.813 2.592-1.459 1.081.283 1.965.289 1.965.014 0-.275-.906-.737-2.013-1.026-1.351-.353-2.365.13-3.081 1.469M120 59.393c0 .216.698.661 1.552.989.89.341 1.291.173.941-.393-.587-.951-2.493-1.406-2.493-.596m49.872 3.357c-1.243 1.586-1.208 1.621.378.378 1.666-1.307 2.195-2.128 1.372-2.128-.207 0-.995.788-1.75 1.75M249 62.214c0 .432.648.786 1.441.786s1.659-.354 1.927-.786c.267-.432-.382-.785-1.441-.785-1.06 0-1.927.353-1.927.785M14.684 63.382c-.376.98-.655 2.532-.621 3.45.042 1.105.39.853 1.029-.746.531-1.328.81-2.88.62-3.45-.19-.569-.653-.233-1.028.746m230.399 1.974c1.125.962 6.917 1.48 6.917.619 0-.536-1.65-.975-3.667-.975-2.016 0-3.479.16-3.25.356M59.846 70.615c-1.245 2.815-2.234 7.446-2.418 11.324l-.311 6.561.799-6.353c.448-3.568 1.409-6.739 2.191-7.234.766-.486 1-.889.521-.898-.48-.008-.406-.577.165-1.265C61.826 71.505 62 70.955 62 68.941c0-.582.45-.781 1-.441s1 .168 1-.382-.461-1.285-1.024-1.633c-.566-.35-1.964 1.493-3.13 4.13M245 68.78c0 1.244 5.903 2.186 6.603 1.053.283-.458-.375-.833-1.462-.833-1.088 0-2.689-.273-3.559-.607-.87-.334-1.582-.16-1.582.387M13.079 70.583c.048 1.165.285 1.402.604.605.289-.722.253-1.585-.079-1.917-.332-.332-.568.258-.525 1.312m62.539 1.674c-5.94 7.787-6.783 11.968-4.036 20.028 1.835 5.388 8.076 12.256 13.008 14.317 3.044 1.272 3.707 1.25 5.919-.2 2.847-1.865 3.243-3.402.877-3.402-3.035 0-9.356-4.349-12.122-8.341-3.69-5.324-3.965-14.867-.563-19.469 2.085-2.819 2.098-2.95.25-2.467-2.189.572-2.569-.705-.751-2.523.66-.66.908-1.2.551-1.2s-1.767 1.465-3.133 3.257M246.5 73c-.34.55-.141 1 .441 1S248 73.55 248 73s-.198-1-.441-1-.719.45-1.059 1M12.189 79.25c-.163 5.839.047 6.748 1.561 6.735 1.18-.011 1.361-.263.557-.774-.657-.418-1.359-3.448-1.561-6.735l-.368-5.976-.189 6.75M246.8 77.2c.933.933 1.467.933 2.4 0 .933-.933.667-1.2-1.2-1.2s-2.133.267-1.2 1.2m-88.928 1.55c-1.243 1.586-1.208 1.621.378.378 1.666-1.307 2.195-2.128 1.372-2.128-.207 0-.995.787-1.75 1.75M245 79.883c0 .486.9 1.119 2 1.407 2.362.617 2.714-.802.418-1.683-2.099-.806-2.418-.769-2.418.276m-67.731 4.81c.973.254 2.323.237 3-.037.677-.274-.119-.481-1.769-.461-1.65.02-2.204.244-1.231.498m66.289.082c-1.125 1.125-.498 1.728 1.943 1.869 1.374.08 2.499-.205 2.499-.633 0-.97-3.683-1.994-4.442-1.236M242 89c0 .55 1.238.968 2.75.93 2.437-.063 2.522-.168.75-.93-2.731-1.174-3.5-1.174-3.5 0m.211 4.538c-.71.804-.877 1.462-.373 1.462s1.477-.675 2.162-1.5c1.604-1.932-.083-1.897-1.789.038M46.246 94.582c-.917.982-.91 1.383.033 1.765.672.273-.129.538-1.779.589-2.319.073-2.659.315-1.5 1.064.882.57 1.014.976.32.985-3.112.04 2.898 11.704 10.237 19.867 6.274 6.979 7.336 7.452 11.214 4.996l3.171-2.008-5.936-5.495c-6.516-6.033-9.26-9.959-12.459-17.831-1.669-4.106-2.365-4.935-3.301-3.932m132.392-.082c-.316.825-.139 1.5.393 1.5.533 0 .969-.675.969-1.5s-.177-1.5-.393-1.5c-.216 0-.652.675-.969 1.5m-.194 5.944c-.376 2.007-.459 3.874-.184 4.149.275.275.808-1.142 1.184-3.149.377-2.006.46-3.873.185-4.148-.275-.275-.808 1.142-1.185 3.148M241 98c1.958 1.266 3.282 1.266 2.5 0-.34-.55-1.379-.993-2.309-.985-1.457.014-1.484.15-.191.985m-1.654 4.129c1.074.627 2.218.707 2.734.191s-.257-.967-1.847-1.078c-2.398-.168-2.507-.06-.887.887M235 104.051c0 1.057 5.858 2.987 6.401 2.11.244-.396-1.096-1.202-2.978-1.791-1.883-.589-3.423-.733-3.423-.319m-58 3.211c0 .877-.707 2.302-1.571 3.167-1.33 1.329-1.347 1.571-.109 1.571 1.454 0 3.278-4.735 2.229-5.785-.302-.301-.549.17-.549 1.047M26.5 109c-.34.55-.141 1 .441 1S28 109.55 28 109s-.198-1-.441-1-.719.45-1.059 1m40.971-.047c1.318 2.132 6.406 5.055 7.033 4.04.355-.573.049-.919-.68-.768-.728.151-1.217-.271-1.086-.939.138-.705-.39-.973-1.261-.639-1.069.411-1.322.113-.881-1.036.451-1.176.033-1.611-1.548-1.611-1.191 0-1.901.429-1.577.953m168.529.082c0 1.433 2.118 2.247 3.153 1.212.639-.639.261-1.167-1.087-1.519-1.136-.298-2.066-.159-2.066.307m-214.445 4.331-2.944 2.356 3.444 5.796c1.895 3.188 4.233 5.911 5.195 6.051.962.14 1.75-.156 1.75-.657 0-.502-.389-.912-.863-.912-.475 0-.787-1.013-.692-2.25.239-3.147-1.135-4.632-3.732-4.033l-2.213.511 2.25-1.671c2.577-1.913 2.905-3.224.806-3.224-.795 0-1.357.432-1.25.959.107.527-.431 1.185-1.195 1.463-.932.338-1.128.082-.596-.78.521-.842.396-1.038-.36-.57-.635.392-1.155.274-1.155-.262 0-.537 1.35-1.573 3-2.303 1.65-.731 3-1.668 3-2.084 0-1.325-1.418-.812-4.445 1.61m212.526-1.086c.23.157 1.154.845 2.052 1.528 1.311.998 1.733.983 2.139-.074.326-.851-.4-1.391-2.053-1.528-1.407-.116-2.369-.083-2.138.074m-158.468 2.903c.289.467.944.591 1.456.274 1.308-.808 1.161-1.124-.525-1.124-.801 0-1.22.383-.931.85m-69.162 9.259c-5.976 12.284-7.084 20.582-3.322 24.862 2.375 2.703 9.943 5.24 8.457 2.836-.398-.645-1.096-.943-1.551-.662-.455.281-2.111-.202-3.681-1.073L3.5 148.82l3.25.565c1.788.311 3.25.345 3.25.076 0-.269-1.428-1.765-3.174-3.325-4.665-4.169-4.335-10.512 1.144-21.929 2.242-4.672 3.872-8.699 3.622-8.948-.249-.249-2.562 3.883-5.141 9.183M233 116.995c1.813 1.178 4 1.3 4 .223 0-.43-1.238-.875-2.75-.99-2.106-.159-2.399.02-1.25.767m-205.417.871c-.431.697-.513 1.537-.183 1.867.895.895 1.871-.421 1.387-1.871-.338-1.016-.574-1.016-1.204.004m196.104.521c-.465 1.23 9.023 5.891 9.714 4.773.238-.385-1.756-1.866-4.43-3.292-3.111-1.659-5.014-2.192-5.284-1.481m-210.123 4.32c-.542 1.425-.428 1.54.56.56.684-.679.991-1.486.683-1.793-.308-.308-.867.247-1.243 1.233M24 122.059c0 .582.45.781 1 .441s1-.816 1-1.059-.45-.441-1-.441-1 .477-1 1.059m14.3 4.191c-.44.688-2.15 1.376-3.8 1.53-6.755.631-7.5.733-7.5 1.03 0 1.155 7.693 9.19 8.8 9.19 1.618 0 14.2-5.703 14.2-6.436 0-.276-.629-.26-1.399.036-.769.295-1.696.056-2.059-.532-.363-.587-.183-1.068.399-1.068.582 0 1.059-.702 1.059-1.559 0-.938-.467-1.27-1.173-.834-1.993 1.232-6.778.964-7.305-.409-.274-.716-.054-1.027.489-.691.544.336.989.134.989-.448 0-1.455-1.725-1.333-2.7.191m134.496 5.139-2.603 3.262 10.295 8.104 10.295 8.105 1.906-2.18c4.884-5.586 5.171-4.928-5.4-12.372-5.384-3.792-10.262-7.183-10.84-7.537-.578-.354-2.222.825-3.653 2.618M225 131c0 .55.45 1 1 1s1-.45 1-1-.45-1-1-1-1 .45-1 1m-1 3.035c0 1.433 2.118 2.247 3.153 1.212.639-.639.261-1.167-1.087-1.519-1.136-.298-2.066-.159-2.066.307m-68.75 2.668c-.687.255-1.25.903-1.25 1.439 0 .537.403.727.895.423.493-.305 1.156.124 1.474.953.452 1.179.04 1.372-1.896.886-1.484-.373-2.473-.19-2.473.456 0 .593.675.818 1.5.502.825-.317 1.5-.292 1.5.056 0 .347-1.152 1.07-2.56 1.605-1.408.535-2.282 1.424-1.941 1.975.34.551.09 1.002-.557 1.002-.71 0-.989-.976-.703-2.47.26-1.358.087-2.232-.383-1.941-.471.291-.856 1.177-.856 1.97 0 .793-.675 1.441-1.5 1.441s-1.5.408-1.5.906c0 .499 1.012.646 2.25.327 2.027-.522 2.11-.409.84 1.139-.776.946-2.03 1.481-2.788 1.19-.758-.29-1.62.104-1.917.878-.297.773-1.292 1.692-2.212 2.042-1.341.51-1.425.387-.423-.623 1.809-1.822 1.535-3.118-.427-2.02-2.107 1.179-2.639 5.496-.58 4.706 2.451-.94 11.627-7.287 15.774-10.91 3.524-3.078 3.81-3.648 2.483-4.937-.825-.802-2.062-1.25-2.75-.995m-60.378 4.047c-1.243 1.586-1.208 1.621.378.378.963-.755 1.75-1.543 1.75-1.75 0-.823-.821-.294-2.128 1.372M221 140.214c0 .432.648.786 1.441.786s1.659-.354 1.927-.786c.267-.432-.382-.785-1.441-.785-1.06 0-1.927.353-1.927.785m-57.612 2.766c-2.714 1.097-6.388 5.76-6.388 8.11 0 1.288-1.023 2.011-3.506 2.477-4.216.791-8.498 5.463-8.485 9.26.006 1.771 2.214 5.468 6.546 10.958l6.537 8.286 3.033-2.16c1.668-1.188 3.267-2.769 3.553-3.514.287-.748-1.987-4.164-5.075-7.626-3.077-3.449-5.596-6.833-5.599-7.521-.009-2.714 3.071-.958 9.14 5.211l6.356 6.461 3.468-2.966 3.468-2.966-6.929-6.983c-5.221-5.261-6.647-7.267-5.781-8.133.866-.866 2.953.503 8.462 5.549l7.312 6.699 3.206-3.677 3.207-3.677-7.61-6.467c-6.169-5.243-11.397-8.656-12.618-8.238-.102.035-1.135.448-2.297.917m56.169.438c2.095 1.532 3.044 1.364 1.984-.351-.362-.587-1.393-1.067-2.291-1.067-1.365 0-1.315.232.307 1.418m-2.295 3.272c.93.93 2.026 1.356 2.435.946.41-.41.083-1.163-.726-1.675-2.435-1.54-3.516-1.078-1.709.729m-1.835 2.831c1.06.802 2.172 1.214 2.471.914.628-.627-1.912-2.412-3.398-2.388-.55.009-.133.673.927 1.474m-204.133.107c.751.75 9.742.67 10.506-.094.293-.294-2.092-.534-5.3-.534-3.208 0-5.551.282-5.206.628m68.147 1.927c-1.864 1.494-1.852 1.512.309.465 1.237-.6 2.25-1.3 2.25-1.555 0-.765-.519-.544-2.559 1.09m-5 3c-1.864 1.494-1.852 1.512.309.465 1.237-.6 2.25-1.3 2.25-1.555 0-.765-.519-.544-2.559 1.09m58.864-.857c-1.364.265-1.994.948-1.666 1.805.415 1.08 1.051 1.14 2.945.277 2.206-1.006 3.442-2.966 1.666-2.644-.412.075-1.738.328-2.945.562M211 154.5c.685.825 1.695 1.5 2.245 1.5.558 0 .449-.663-.245-1.5-.685-.825-1.695-1.5-2.245-1.5-.558 0-.449.663.245 1.5m-145.5 4.7c-14.608 7.558-30.807 11.648-38.901 9.822-1.972-.444-3.355-.437-3.075.018.281.454 2.915 1.324 5.853 1.934 8.975 1.864 22.222-1.177 36.375-8.348 2.85-1.444 6.434-2.658 7.965-2.696 2.408-.061 2.514-.177.783-.862-1.1-.435-2.675-.544-3.5-.242-1.288.471-1.306.31-.128-1.139 1.765-2.169 1.722-2.157-5.372 1.513m142.111-2.38c-.265.429.368 1.311 1.407 1.959 1.039.649 2.106.829 2.371.401.265-.429-.368-1.311-1.407-1.959-1.039-.649-2.106-.829-2.371-.401M67 160c-.825.533-1.05.969-.5.969s1.675-.436 2.5-.969c.825-.533 1.05-.969.5-.969s-1.675.436-2.5.969m25 .059c0 .582.45.781 1 .441s1-.816 1-1.059-.45-.441-1-.441-1 .477-1 1.059m-9.5.941c-.34.55-.141 1 .441 1S84 161.55 84 161s-.198-1-.441-1-.719.45-1.059 1m4.5.966c2.478.827 9.718 1.37 8.917.669-.229-.2-2.892-.62-5.917-.933-3.551-.368-4.614-.274-3 .264m10 .201c0 .458.675.833 1.5.833s1.5-.375 1.5-.833c0-.459-.675-.834-1.5-.834s-1.5.375-1.5.834m107 .927c0 .498.9.906 2 .906s2-.173 2-.383c0-.211-.9-.619-2-.907-1.1-.287-2-.115-2 .384m-3 2.406c.685.825 1.951 1.5 2.814 1.5 1.255 0 1.181-.293-.373-1.468-2.539-1.921-4.025-1.94-2.441-.032m-67.458 2.298c-3.332.73-6.538 3.337-7.162 5.825-.517 2.059-1.194 2.377-5.065 2.377-3.606 0-5.033.565-7.392 2.923-1.608 1.608-2.923 3.686-2.923 4.618 0 1.455 7.493 19.217 8.591 20.365.681.713 8.409-3.168 8.409-4.223 0-.557-1.819-4.326-4.041-8.376-2.223-4.05-3.772-7.801-3.441-8.335 1.387-2.245 3.36-.58 6.847 5.778 2.037 3.713 4.077 7.353 4.533 8.09.672 1.083 1.621.936 4.966-.771 2.275-1.16 4.136-2.322 4.136-2.582 0-.26-2.025-3.727-4.5-7.704s-4.5-7.805-4.5-8.507c0-3.109 2.871-.681 7.371 6.237 2.679 4.118 5.101 7.487 5.382 7.487 1.238 0 7.247-4.258 7.247-5.135 0-1.177-10.088-14.921-12.082-16.46-2.035-1.571-4.13-2.099-6.376-1.607m65.069.022c-.265.429.368 1.311 1.407 1.959 1.039.649 2.106.829 2.371.401.265-.429-.368-1.311-1.407-1.959-1.039-.649-2.106-.829-2.371-.401m-3 3c-.265.429.368 1.311 1.407 1.959 1.039.649 2.106.829 2.371.401.265-.429-.368-1.311-1.407-1.959-1.039-.649-2.106-.829-2.371-.401M194 174.5c.685.825 1.695 1.5 2.245 1.5.558 0 .449-.663-.245-1.5-.685-.825-1.695-1.5-2.245-1.5-.558 0-.449.663.245 1.5m-3 1.369c0 1.373 2.757 3.333 3.346 2.38.289-.467-.346-1.393-1.411-2.057-1.064-.665-1.935-.81-1.935-.323m-11.432 1.022c-.336.542-.031 1.351.678 1.798.708.446 2.475 2.258 3.927 4.026 1.93 2.352 2.886 2.889 3.555 2 .63-.837-.401-2.396-3.318-5.013-2.328-2.089-4.507-3.354-4.842-2.811M96.5 185.556c-4.055 2.087-6.451 5.35-6.478 8.824-.034 4.44 4.143 18.62 5.486 18.62 1.066 0 7.57-1.974 8.27-2.51.153-.117-.205-1.483-.796-3.036-.859-2.261-.776-2.99.414-3.656 2.249-1.258.154-6.755-2.327-6.106-1.313.344-1.992-.248-2.47-2.155-.802-3.193-.093-4.537 2.392-4.537 1.616 0 6.009-4.682 6.009-6.404 0-1.223-7.61-.527-10.5.96m73.138.139c-.703.703 7.59 3.248 10.362 3.18 1.93-.047-5.981-3.814-8.083-3.849-.871-.014-1.897.287-2.279.669m5.362 8.364c0 .582.45.781 1 .441s1-.816 1-1.059-.45-.441-1-.441-1 .477-1 1.059m-9 2.664c0 1.258 2.858 3.752 3.53 3.08.265-.265-.42-1.299-1.524-2.297-1.103-.999-2.006-1.351-2.006-.783m-5 4.527c0 .898.48 1.929 1.067 2.291 1.715 1.06 1.883.111.351-1.984-1.186-1.622-1.418-1.672-1.418-.307m-9 6.143c0 .766.685 1.656 1.523 1.978 1.243.476 1.328.22.465-1.394-1.241-2.318-1.988-2.537-1.988-.584m-2.294 2.577c.928 1.084 1.888 1.769 2.133 1.524.596-.596-1.852-3.494-2.952-3.494-.477 0-.108.887.819 1.97m-3.66 2.116c.614 1.147 1.315 1.886 1.559 1.643.699-.7-.719-3.729-1.747-3.729-.511 0-.426.938.188 2.086m-2.454 2.414c.901 1.375 2.047 2.5 2.546 2.5.499 0 .171-1.125-.73-2.5s-2.047-2.5-2.546-2.5c-.499 0-.171 1.125.73 2.5m-4.592.833c0 .927.777 1.66 1.75 1.652.999-.009 1.321-.336.75-.762-.55-.41-1.338-1.154-1.75-1.651-.412-.498-.75-.155-.75.761m-4 .467c0 1.039 2.167 3.2 3.208 3.2.445 0 .247-.9-.44-2-1.262-2.02-2.768-2.673-2.768-1.2m-2.29 3.2c.288 1.1.921 2 1.407 2 1.045 0 1.082-.319.276-2.418-.881-2.296-2.3-1.944-1.683.418m-4 2c.288 1.1.921 2 1.407 2 1.045 0 1.082-.319.276-2.418-.881-2.296-2.3-1.944-1.683.418m-3 1c.288 1.1.921 2 1.407 2 1.045 0 1.082-.319.276-2.418-.881-2.296-2.3-1.944-1.683.418m-22.303 2.25a99.063 99.063 0 0 1 1.227 4.926c.347 1.581 1.097 2.481 1.834 2.198.967-.371.888-1.476-.353-4.926-1.619-4.503-3.888-6.345-2.708-2.198M117 225.5c0 .825.436 1.5.969 1.5.532 0 .709-.675.393-1.5-.317-.825-.753-1.5-.969-1.5-.216 0-.393.675-.393 1.5m-21.923 3.949c2.397 1.897 4.565 3.242 4.818 2.99.903-.903-5.307-6.439-7.223-6.439-1.473 0-.882.848 2.405 3.449M110 227.393c0 .766.624 1.632 1.387 1.925.973.374 1.236-.042.883-1.393-.579-2.214-2.27-2.61-2.27-.532m-95 5.525c0 2.155-.273 4.63-.607 5.5-.37.966-.076 1.582.756 1.582.948 0 1.454-1.671 1.664-5.5.186-3.389-.104-5.5-.756-5.5-.581 0-1.057 1.763-1.057 3.918M24.5 231c.34.55.816 1 1.059 1s.441-.45.441-1-.477-1-1.059-1-.781.45-.441 1m59.21 4c.288 1.1.937 2 1.442 2 .507 0 .439-.895-.152-2-.589-1.1-1.237-2-1.442-2-.204 0-.135.9.152 2m-63.21 0c.34.55.816 1 1.059 1s.441-.45.441-1-.477-1-1.059-1-.781.45-.441 1m58.893.582c.334.87.607 1.77.607 2 0 .23.408.418.906.418.499 0 .671-.9.384-2-.288-1.1-.969-2-1.514-2-.544 0-.717.712-.383 1.582M33 238c0 1.65.354 3 .787 3 .433 0 .89-1.35 1.016-3s-.228-3-.787-3S33 236.35 33 238m30.775-2.442c-.744.744.257 4.442 1.203 4.442.41 0 .53-1.125.267-2.5-.512-2.675-.609-2.803-1.47-1.942m7.671.529c-.369.598-.267 1.492.227 1.986.531.531.898.087.898-1.087 0-2.273-.185-2.42-1.125-.899m4.282.847c-.298 1.136-.159 2.066.307 2.066 1.433 0 2.247-2.118 1.212-3.153-.639-.639-1.167-.261-1.519 1.087M67.429 238c0 1.1.536 2 1.192 2 .699 0 .976-.826.669-2-.288-1.1-.824-2-1.192-2s-.669.9-.669 2M29 238.941c0 1.132.45 2.059 1 2.059s1-.648 1-1.441-.45-1.719-1-2.059c-.55-.34-1 .309-1 1.441m8.5.474c0 1.831.305 2.162 1.262 1.367.949-.787.981-1.387.128-2.415-1.448-1.744-1.39-1.787-1.39 1.048m3.5.026c0 1.407.45 2.559 1 2.559s1-.873 1-1.941-.45-2.219-1-2.559c-.567-.351-1 .49-1 1.941m5.356.058c.079 1.375.644 2.5 1.255 2.5.647.001.912-1.045.634-2.499-.621-3.246-2.076-3.246-1.889-.001m4.311-1.832c-.925.924-.838 3.333.12 3.333.433 0 .855-.9.938-2 .162-2.149-.017-2.375-1.058-1.333m9.333.774c0 .793.45 1.719 1 2.059.55.34 1-.309 1-1.441 0-1.132-.45-2.059-1-2.059s-1 .648-1 1.441" fill="#1976D2" fill-rule="evenodd"/></svg>